Coordinates
version=1
nRows=15
nColumns=42
inDegrees=yes

Units are S.I. units (second, meters, Newtons, ...)
If the header above contains a line with 'inDegrees', this indicates whether rotational values are in degrees (yes) or radians (no).

endheader
time	pelvis_tilt	pelvis_list	pelvis_rotation	pelvis_tx	pelvis_ty	pelvis_tz	hip_flexion_r	hip_adduction_r	hip_rotation_r	knee_angle_r	knee_angle_r_beta	ankle_angle_r	subtalar_angle_r	mtp_angle_r	hip_flexion_l	hip_adduction_l	hip_rotation_l	knee_angle_l	knee_angle_l_beta	ankle_angle_l	subtalar_angle_l	mtp_angle_l	lumbar_extension	lumbar_bending	lumbar_rotation	sh_tx_r	sh_ty_r	sh_tz_r	sh_plane_elev_r	sh_elev_r	sh_axial_rot_r	elbow_flex_r	pro_sup_r	sh_tx_l	sh_ty_l	sh_tz_l	sh_plane_elev_l	sh_elev_l	sh_axial_rot_l	elbow_flex_l	pro_sup_l
      1.85000000	      0.53906286	     -4.81278485	     11.53522983	     -1.35587247	      1.05564404	      0.08548906	     20.80939919	      8.36402771	      0.59033150	     19.38268750	      0.33829171	     -9.22617844	    -22.94273657	     -7.49999987	    -15.16350255	     -3.98976797	      9.69349302	     31.08793093	      0.54258675	     17.34781288	     -4.85754565	     -7.49999987	     -6.05286315	      7.23172111	    -17.54801909	      0.00903363	      0.00326078	     -0.00706003	     -2.83612031	      3.52018386	      5.17592656	     20.52805760	    103.29821528	     -0.00352138	      0.02493284	     -0.00652169	    -14.20966356	      1.01712160	     -2.39265818	     46.90212845	     66.27004367
      1.86666670	      1.06427741	     -4.30918408	     11.12951242	     -1.31906781	      1.05874115	      0.08583699	     19.25240040	      8.43476348	      1.01479647	     20.97601828	      0.36610058	     -6.79496482	    -23.01153322	     -7.49999987	    -14.18633254	     -3.54645157	      8.94939981	     34.18263122	      0.59659946	     17.88947983	     -5.49277922	     -7.49999987	     -7.18721735	      6.87724543	    -16.53872039	      0.00346120	      0.00085769	     -0.00714334	     -2.79744732	      3.43253960	      5.03047947	     21.60931751	    102.82665904	     -0.01271132	      0.02090405	     -0.00666425	    -13.81437240	      1.02419144	     -2.50387161	     45.08012922	     66.08235407
      1.88333330	      1.50962849	     -3.52548236	     10.62612663	     -1.27885167	      1.06204978	      0.08523863	     17.42860917	      8.18285297	      1.61890562	     22.14611115	      0.38652256	     -4.34256528	    -22.66326171	     -7.49999987	    -12.78321732	     -2.74287519	      8.37140925	     37.54086049	      0.65521162	     18.55718786	     -6.06134746	     -7.49999987	     -7.74015003	      5.87807430	    -15.18381546	      0.00241105	     -0.00093082	     -0.00708222	     -2.92690885	      3.32870763	      4.59307742	     22.91957623	    102.50903048	     -0.01262361	      0.01941361	     -0.00680363	    -13.20822122	      0.98387048	     -2.63140955	     42.41470862	     65.80359535
      1.90000000	      1.94949724	     -2.65697936	     10.19862990	     -1.24029173	      1.06833263	      0.08369961	     15.37791743	      7.75803154	      2.19526140	     22.79655448	      0.39787493	     -2.37993093	    -22.60509828	     -7.49999987	    -10.86555989	     -1.80241485	      8.00487812	     41.15871083	      0.71835502	     19.36166620	     -6.85913775	     -7.49999987	     -8.47460467	      4.95381705	    -14.17369564	      0.00251113	     -0.00322251	     -0.00704319	     -2.94998809	      3.68706683	      4.39148925	     24.07545681	    102.17393103	     -0.01576477	      0.01627846	     -0.00712908	    -12.49321987	      0.77734618	     -2.66964222	     40.42051354	     65.59116546
      1.91666670	      2.01829882	     -1.80011678	      9.58514827	     -1.21030413	      1.07451969	      0.08175092	     13.31466526	      7.21522253	      2.91106087	     22.54706262	      0.39352048	     -0.65871014	    -21.87967081	     -7.49999987	     -8.20082562	     -0.72645451	      7.52120876	     44.67359384	      0.77970130	     19.85268788	     -7.63337986	     -7.49999987	     -8.65197753	      3.98499852	    -11.43420154	     -0.00343056	     -0.00565762	     -0.00691805	     -9.06506103	      3.89318098	      6.38821639	     25.61034725	    106.33740946	     -0.01346572	      0.01304565	     -0.00715994	     -4.70565513	      0.81917552	     -6.67600939	     37.43710191	     60.78963549
      1.93333330	      2.18750914	     -0.91797999	      9.01982571	     -1.19229907	      1.07823001	      0.08285872	     10.89595634	      6.62836870	      3.72859146	     21.59460914	      0.37689703	      0.43075437	    -21.56960672	     -7.49999987	     -5.28807852	      0.36067680	      7.10578486	     47.96590240	      0.83716293	     20.11528499	     -8.37231023	     -7.49999987	     -9.41373444	      2.87852946	    -10.43899498	     -0.00455221	     -0.00704554	     -0.00667937	     -8.87044111	      3.85309052	      6.31826107	     26.73493812	    105.95260204	     -0.01990327	      0.01021211	     -0.00730497	     -4.61614932	      0.80873452	     -6.78391360	     36.17431570	     60.69011693
      1.95000000	      1.90166957	     -0.22198022	      8.36310377	     -1.18118885	      1.07860840	      0.08441180	      8.80424291	      6.05083704	      4.39213270	     20.10073581	      0.35082402	      1.15330255	    -20.83905999	     -7.49999987	     -1.70213152	      1.36385033	      6.66932573	     50.71205006	      0.88509224	     19.64545400	     -9.40951833	     -7.49999987	     -9.07102336	      1.95491106	     -8.64596917	     -0.00659453	     -0.00721331	     -0.00684674	     -9.24075086	      3.80963614	      5.38158525	     28.53425693	    105.67706513	     -0.01671619	      0.01058761	     -0.00718807	     -3.98263211	      0.83109191	     -6.43462183	     32.57654045	     60.24929079
      1.96666670	      1.53471546	      0.21969032	      7.70811940	     -1.16470349	      1.08111706	      0.08405303	      6.82613500	      5.66720379	      5.22631430	     18.48386669	      0.32260433	      1.50215609	    -20.61853987	     -7.49999987	      2.21001928	      2.11106841	      6.27906191	     53.05382153	      0.92596387	     18.96576253	    -10.27698992	     -7.49999987	     -8.86831319	      1.34678387	     -7.10441239	     -0.00751439	     -0.00791206	     -0.00681947	     -9.43949485	      3.74078213	      4.79245446	     30.11032095	    105.52905645	     -0.01704850	      0.00855879	     -0.00709041	     -3.68851358	      0.89162358	     -6.32848071	     30.20308389	     59.86504343
      1.98333330	      1.25776170	      0.85415343	      7.08415060	     -1.14483088	      1.08542772	      0.08313040	      4.69954437	      5.08754340	      6.02188555	     16.47458504	      0.28753575	      1.62159595	    -20.02628172	     -7.49999987	      6.09426079	      2.96632693	      6.20528143	     54.25375577	      0.94690667	     17.59737009	    -11.71025818	     -7.49999987	     -8.79713042	      0.45287017	     -5.45172980	     -0.00782218	     -0.00737226	     -0.00674834	     -9.87993596	      3.57344773	      4.01719244	     31.63211903	    105.58882125	     -0.01555365	      0.00891266	     -0.00695535	     -3.23815375	      1.00021083	     -5.95520493	     27.88994373	     59.25450773
      2.00000000	      1.08017363	      1.39889998	      6.38233645	     -1.12072561	      1.09101603	      0.08158977	      2.46256214	      4.48765083	      6.67386173	     14.40379982	      0.25139373	      1.89329448	    -19.01002017	     -7.49999987	      9.89277108	      3.62674004	      6.03481203	     54.85434662	      0.95738896	     16.27633443	    -13.17216234	     -7.49999987	     -9.20626852	     -0.18619427	     -3.93995297	     -0.01196048	     -0.00603450	     -0.00668824	    -10.14605904	      3.52570055	      3.62067410	     33.56261189	    105.55733772	     -0.01976421	      0.00883469	     -0.00685197	     -3.18777036	      1.11428409	     -5.99718533	     25.92546896	     58.85134536
      2.01666670	      0.86004557	      1.82798693	      5.61574045	     -1.09795965	      1.09537349	      0.08061692	      0.25410583	      3.90799242	      7.26340695	     12.09389841	      0.21107835	      1.95610740	    -17.90025911	     -7.49999987	     13.43686005	      4.15965200	      6.02049659	     54.52585694	      0.95165573	     14.26912829	    -15.30090589	     -7.49999987	     -9.51635869	     -0.68605227	     -1.48357199	     -0.01901483	     -0.00337656	     -0.00680500	    -15.64310322	      3.32046301	      6.15101657	     35.99435809	    108.35703214	     -0.02195612	      0.01000032	     -0.00682757	     -0.87346485	      1.24068391	     -5.50020769	     23.86771139	     53.92582483
      2.03333330	      0.46724964	      2.19327207	      4.91554733	     -1.07710089	      1.09811634	      0.08025690	     -1.81046793	      3.35525739	      7.84436463	      9.59180445	      0.16740857	      1.86229572	    -16.96604234	     -7.49999987	     16.88888787	      4.38405839	      5.84650908	     53.44773001	      0.93283887	     12.84586026	    -15.82247498	     -7.49999987	     -9.48223023	     -1.20263106	     -0.33137653	     -0.02065867	     -0.00179170	     -0.00667469	    -15.54590904	      3.53725637	      5.93312618	     37.49525767	    108.18031561	     -0.02762329	      0.00929034	     -0.00690456	     -0.95962318	      1.20428339	     -5.75518634	     22.54042601	     53.82863981
      2.05000000	      0.41335935	      2.76092979	      4.20251058	     -1.05607061	      1.10089871	      0.07853082	     -4.13697530	      2.49435101	      8.13623123	      7.26791919	      0.12684912	      2.00362131	    -15.75509429	     -7.49999987	     19.40834558	      5.08703763	      6.19778820	     51.21548802	      0.89387889	      9.35722127	    -19.39370082	     -7.49999987	     -9.55115021	     -1.82101805	      1.94906786	     -0.02337198	     -0.00215008	     -0.00663207	    -17.59906478	      4.25166734	      6.42632114	     39.63684158	    108.19299223	     -0.02344178	      0.00810235	     -0.00702060	      3.30117191	      1.04251741	     -6.80431329	     19.52633229	     51.82938399
      2.06666670	      0.21522475	      3.33617747	      3.52727508	     -1.03429766	      1.10152104	      0.07666768	     -6.24291300	      1.62395780	      8.52766414	      5.00486089	      0.08735130	      1.99567637	    -14.89403755	     -7.49999987	     21.65977891	      5.58987783	      6.44690309	     48.19733517	      0.84120219	      6.14060809	    -21.62121068	     -7.49999987	     -9.41595893	     -2.58296046	      3.34139907	     -0.02217898	     -0.00254084	     -0.00646310	    -17.64597624	      5.03721719	      6.23039802	     41.41867606	    108.19809175	     -0.02311006	      0.00700254	     -0.00722444	      3.83277678	      0.78877893	     -7.21370535	     17.84082195	     51.43321744
      2.08333330	      0.10177504	      3.76393297	      2.82753902	     -1.01081919	      1.10075293	      0.07548807	     -8.23283000	      0.85620752	      8.77181724	      3.04271526	      0.05310540	      2.15219759	    -13.93619543	     -7.49999987	     23.36350400	      5.92296529	      6.87297002	     44.52346686	      0.77708109	      2.69286433	    -23.72950310	     -7.49999987	     -9.41898828	     -3.15433695	      4.86061845	     -0.02266901	     -0.00117193	     -0.00639217	    -17.87745225	      5.45870829	      5.83944338	     43.09369103	    108.18403433	     -0.02305312	      0.00743270	     -0.00725889	      4.45808750	      0.78449033	     -7.47442746	     16.20419466	     51.04398056
